<?xml version="1.0" encoding="UTF-8"?>
<svg width="250px" height="75px" viewBox="0 0 250 75" version="1.1" xmlns="http://www.w3.org/2000/svg" xmlns:xlink="http://www.w3.org/1999/xlink">
    <!-- Generator: Sketch 46.2 (44496) - http://www.bohemiancoding.com/sketch -->
    <title>logo</title>
    <desc>Created with Sketch.</desc>
    <defs></defs>
    <g id="Page-1" stroke="none" stroke-width="1" fill="none" fill-rule="evenodd">
        <g id="logo">
            <g id="Group" transform="translate(13.000000, 13.000000)">
                <path d="M19.5078,20.4533 L0.6328,39.3273" id="Stroke-93" stroke="#1A1919" stroke-width="2.126" stroke-linecap="round" stroke-linejoin="round"></path>
                <path d="M22.7578,33.9768 L3.8848,52.8518" id="Stroke-95" stroke="#1A1919" stroke-width="2.126" stroke-linecap="round" stroke-linejoin="round"></path>
                <path d="M36.2832,37.2297 L17.4102,56.1037" id="Stroke-97" stroke="#1A1919" stroke-width="2.126" stroke-linecap="round" stroke-linejoin="round"></path>
                <path d="M76.5391,4.174 C76.1761,3.192 75.5571,3.036 74.5741,3.036 L74.2661,3.036 L74.2661,0.969 L74.6271,0.969 C77.2111,0.969 77.9321,1.435 78.8611,3.966 L88.6291,30.219 C89.2521,31.924 90.0251,34.561 90.0251,34.561 L90.1291,34.561 C90.1291,34.561 90.9021,31.924 91.5251,30.219 L101.3421,3.966 C102.3261,1.382 102.9961,0.969 105.5821,0.969 L105.9411,0.969 L105.9411,3.036 L105.6311,3.036 C104.6481,3.036 104.0291,3.192 103.6681,4.174 L91.3161,37.142 L88.8891,37.142 L76.5391,4.174 Z" id="Fill-99" fill="#0B0B09"></path>
                <path d="M118.5488,35.6428 C124.6968,35.6428 129.6578,30.6328 129.6578,24.0688 C129.6578,17.6628 124.6968,12.8038 118.5488,12.8038 C112.3988,12.8038 107.4378,17.6628 107.4378,24.0688 C107.4378,30.6328 112.3988,35.6428 118.5488,35.6428 M118.5488,10.6838 C125.9398,10.6838 131.9338,16.5238 131.9338,24.0688 C131.9338,31.7678 125.9398,37.7638 118.5488,37.7638 C111.1578,37.7638 105.1638,31.7678 105.1638,24.0688 C105.1638,16.5238 111.1578,10.6838 118.5488,10.6838" id="Fill-101" fill="#0B0B09"></path>
                <path d="M137.1504,31.718 C137.1504,31.718 139.8364,35.643 145.1584,35.643 C148.4664,35.643 151.5134,33.991 151.5134,30.785 C151.5134,24.276 136.6324,25.723 136.6324,17.404 C136.6324,12.959 140.3534,10.684 145.4684,10.684 C147.6914,10.684 152.7554,11.666 152.7554,15.077 L152.7554,17.039 L150.5844,17.039 L150.5844,15.799 C150.5844,13.631 147.3804,12.804 145.5724,12.804 C141.3844,12.804 138.9064,14.303 138.9064,17.248 C138.9064,23.863 153.7914,22.261 153.7914,30.785 C153.7914,34.921 150.0154,37.764 145.1074,37.764 C138.5954,37.764 135.5974,33.32 135.5974,33.32 L137.1504,31.718 Z" id="Fill-103" fill="#0B0B09"></path>
                <path d="M160.0918,13.2678 L156.6798,13.2678 L156.6798,11.3048 L160.0918,11.3048 L160.0918,4.1218 L162.2618,4.1218 L162.2618,11.3048 L169.0308,11.3048 L169.0308,13.2678 L162.2618,13.2678 L162.2618,27.6348 C162.2618,34.4548 166.3458,35.3338 168.4098,35.3338 C169.1348,35.3338 169.6018,35.2328 169.6018,35.2328 L169.6018,37.2468 C169.6018,37.2468 169.0818,37.3498 168.3068,37.3498 C165.6208,37.3498 160.0918,36.3678 160.0918,27.7898 L160.0918,13.2678 Z" id="Fill-105" fill="#0B0B09"></path>
                <path d="M185.2031,35.6428 C191.3551,35.6428 196.3141,30.6328 196.3141,24.0688 C196.3141,17.6628 191.3551,12.8038 185.2031,12.8038 C179.0551,12.8038 174.0961,17.6628 174.0961,24.0688 C174.0961,30.6328 179.0551,35.6428 185.2031,35.6428 M185.2031,10.6838 C192.5961,10.6838 198.5881,16.5238 198.5881,24.0688 C198.5881,31.7678 192.5961,37.7638 185.2031,37.7638 C177.8141,37.7638 171.8221,31.7678 171.8221,24.0688 C171.8221,16.5238 177.8141,10.6838 185.2031,10.6838" id="Fill-107" fill="#0B0B09"></path>
                <path d="M204.6836,4.0686 C204.6836,3.2956 204.2696,2.9336 203.5446,2.9336 L201.3246,2.9336 L201.3246,0.9686 L203.8576,0.9686 C205.9746,0.9686 206.8536,1.8476 206.8536,3.9656 L206.8536,21.5376 L209.8516,21.5376 C210.8846,21.5376 212.2286,21.1236 213.0016,20.1936 L220.2886,11.3046 L223.1836,11.3046 L215.3286,20.6566 C213.9846,22.2086 213.3656,22.4146 213.3656,22.4146 L213.3656,22.5196 C213.3656,22.5196 214.0876,22.8276 214.9156,24.3266 L220.3416,33.9916 C220.8576,34.9216 221.3246,35.1796 222.8226,35.1796 L224.0606,35.1796 L224.0606,37.1416 L222.7166,37.1416 C219.9276,37.1416 219.3086,36.6776 218.0156,34.4046 L212.5386,24.6366 C211.9706,23.6046 210.6266,23.4496 209.6446,23.4496 L206.8536,23.4496 L206.8536,37.1416 L204.6836,37.1416 L204.6836,4.0686 Z" id="Fill-109" fill="#0B0B09"></path>
                <polygon id="Fill-111" fill="#FFFFFE" points="54.7344 2.0334 54.7344 27.7304 29.0374 27.7304 29.0374 2.0344"></polygon>
                <polygon id="Stroke-113" stroke="#1C1B19" stroke-width="2.126" stroke-linecap="round" stroke-linejoin="round" points="54.7999992 2 54.7999992 27.7999992 29 27.7999992 29 2.00100401"></polygon>
                <path d="M38.5937,18.174 C31.4727,11.052 19.9257,11.052 12.8047,18.174 C5.6817,25.295 5.6817,36.843 12.8047,43.964 C19.9257,51.086 31.4727,51.085 38.5937,43.964 C45.7167,36.842 45.7147,25.295 38.5937,18.174" id="Fill-115" fill="#FFFFFE"></path>
                <path d="M38.5937,18.174 C31.4727,11.052 19.9257,11.052 12.8047,18.174 C5.6817,25.295 5.6817,36.843 12.8047,43.964 C19.9257,51.086 31.4727,51.085 38.5937,43.964 C45.7167,36.842 45.7147,25.295 38.5937,18.174 Z" id="Stroke-117" stroke="#1C1B19" stroke-width="2.126" stroke-linecap="round" stroke-linejoin="round"></path>
                <polygon id="Fill-119" fill="#FFFFFE" points="24.6445 12.7873 34.3125 22.4553 43.9805 32.1223 54.7795 27.7753 28.9905 1.9863"></polygon>
                <polygon id="Stroke-121" stroke="#1C1B19" stroke-width="2.126" stroke-linecap="round" stroke-linejoin="round" points="24.6445 12.7873 34.3125 22.4553 43.9805 32.1223 54.7795 27.7753 28.9905 1.9863"></polygon>
                <path d="M26.248,14.2521 C25.258,15.2441 23.646,15.2441 22.654,14.2521 C21.664,13.2601 21.664,11.6511 22.656,10.6581 C23.652,9.6661 25.258,9.6661 26.248,10.6581 C27.24,11.6501 27.24,13.2601 26.248,14.2521" id="Fill-123" fill="#FFFFFE"></path>
                <path d="M26.248,14.2521 C25.258,15.2441 23.646,15.2441 22.654,14.2521 C21.664,13.2601 21.664,11.6511 22.656,10.6581 C23.652,9.6661 25.258,9.6661 26.248,10.6581 C27.24,11.6501 27.24,13.2601 26.248,14.2521 Z" id="Stroke-125" stroke="#1C1B19" stroke-width="2.126" stroke-linecap="round" stroke-linejoin="round"></path>
                <path d="M31.2051,19.2063 C30.2131,20.1983 28.6011,20.1983 27.6091,19.2053 C26.6171,18.2133 26.6171,16.6053 27.6091,15.6123 C28.6011,14.6203 30.2131,14.6193 31.2051,15.6123 C32.1951,16.6033 32.1951,18.2133 31.2051,19.2063" id="Fill-127" fill="#FFFFFE"></path>
                <path d="M31.2051,19.2063 C30.2131,20.1983 28.6011,20.1983 27.6091,19.2053 C26.6171,18.2133 26.6171,16.6053 27.6091,15.6123 C28.6011,14.6203 30.2131,14.6193 31.2051,15.6123 C32.1951,16.6033 32.1951,18.2133 31.2051,19.2063 Z" id="Stroke-129" stroke="#1C1B19" stroke-width="2.126" stroke-linecap="round" stroke-linejoin="round"></path>
                <path d="M36.1582,24.1604 C35.1682,25.1524 33.5542,25.1524 32.5642,24.1604 C31.5682,23.1664 31.5722,21.5584 32.5622,20.5654 C33.5542,19.5734 35.1642,19.5724 36.1582,20.5644 C37.1502,21.5584 37.1522,23.1684 36.1582,24.1604" id="Fill-131" fill="#FFFFFE"></path>
                <path d="M36.1582,24.1604 C35.1682,25.1524 33.5542,25.1524 32.5642,24.1604 C31.5682,23.1664 31.5722,21.5584 32.5622,20.5654 C33.5542,19.5734 35.1642,19.5724 36.1582,20.5644 C37.1502,21.5584 37.1522,23.1684 36.1582,24.1604 Z" id="Stroke-133" stroke="#1C1B19" stroke-width="2.126" stroke-linecap="round" stroke-linejoin="round"></path>
                <path d="M41.1094,29.1135 C40.1174,30.1065 38.5074,30.1065 37.5154,29.1135 C36.5254,28.1215 36.5234,26.5105 37.5174,25.5195 C38.5094,24.5265 40.1174,24.5265 41.1094,25.5195 C42.1054,26.5105 42.1014,28.1215 41.1094,29.1135" id="Fill-135" fill="#FFFFFE"></path>
                <path d="M41.1094,29.1135 C40.1174,30.1065 38.5074,30.1065 37.5154,29.1135 C36.5254,28.1215 36.5234,26.5105 37.5174,25.5195 C38.5094,24.5265 40.1174,24.5265 41.1094,25.5195 C42.1054,26.5105 42.1014,28.1215 41.1094,29.1135 Z" id="Stroke-137" stroke="#1C1B19" stroke-width="2.126" stroke-linecap="round" stroke-linejoin="round"></path>
                <path d="M46.0625,34.0666 C45.0745,35.0596 43.4625,35.0586 42.4725,34.0686 C41.4785,33.0746 41.4785,31.4646 42.4705,30.4726 C43.4625,29.4806 45.0745,29.4806 46.0645,30.4726 C47.0565,31.4646 47.0585,33.0756 46.0625,34.0666" id="Fill-139" fill="#FFFFFE"></path>
                <path d="M46.0625,34.0666 C45.0745,35.0596 43.4625,35.0586 42.4725,34.0686 C41.4785,33.0746 41.4785,31.4646 42.4705,30.4726 C43.4625,29.4806 45.0745,29.4806 46.0645,30.4726 C47.0565,31.4646 47.0585,33.0756 46.0625,34.0666 Z" id="Stroke-141" stroke="#1C1B19" stroke-width="2.126" stroke-linecap="round" stroke-linejoin="round"></path>
            </g>
        </g>
    </g>
</svg>